<svg xmlns="http://www.w3.org/2000/svg" width="512" height="512" viewBox="0 0 512 512">
  <defs>
    <linearGradient id="bg" x1="60" y1="40" x2="450" y2="480">
      <stop offset="0%" stop-color="#10b981"/>
      <stop offset="45%" stop-color="#0f766e"/>
      <stop offset="100%" stop-color="#1d4ed8"/>
    </linearGradient>

    <linearGradient id="card" x1="120" y1="80" x2="390" y2="430">
      <stop offset="0%" stop-color="#ffffff"/>
      <stop offset="100%" stop-color="#dff7f4"/>
    </linearGradient>

    <filter id="shadow" x="-20%" y="-20%" width="140%" height="140%">
      <feDropShadow dx="0" dy="18" stdDeviation="18" flood-color="#063b3f" flood-opacity="0.35"/>
    </filter>
  </defs>

  <rect width="512" height="512" rx="110" fill="url(#bg)"/>

  <circle cx="92" cy="92" r="56" fill="#ffffff" opacity="0.14"/>
  <circle cx="430" cy="410" r="82" fill="#ffffff" opacity="0.10"/>

  <path d="M383 72 L398 108 L436 122 L398 136 L383 172 L368 136 L330 122 L368 108 Z" fill="#facc15"/>
  <path d="M94 328 L104 350 L128 360 L104 370 L94 392 L84 370 L60 360 L84 350 Z" fill="#ffffff" opacity="0.9"/>

  <rect x="98" y="82" width="316" height="350" rx="54" fill="url(#card)" filter="url(#shadow)"/>

  <rect x="142" y="132" width="228" height="26" rx="13" fill="#0f766e" opacity="0.95"/>
  <rect x="142" y="196" width="180" height="24" rx="12" fill="#14b8a6" opacity="0.95"/>
  <rect x="142" y="258" width="150" height="24" rx="12" fill="#2563eb" opacity="0.88"/>

  <circle cx="154" cy="345" r="52" fill="#0f766e"/>
  <path d="M130 344 L150 364 L184 324" fill="none" stroke="#ffffff" stroke-width="18" stroke-linecap="round" stroke-linejoin="round"/>

  <text x="256" y="485" text-anchor="middle" font-family="Arial, sans-serif" font-size="42" font-weight="800" fill="#ffffff">TO-DO</text>
</svg>
